<svg preserveAspectRatio="none" overflow="visible" style="display: block;" width="19.4238" height="16.1279" viewBox="0 0 19.4238 16.1279" fill="none" xmlns="http://www.w3.org/2000/svg">
<g id="Group">
<path id="Vector" opacity="0" d="M19.4238 1.04904e-06H0V16.1279H19.4238V1.04904e-06Z" fill="black"/>
<path id="Vector_2" d="M10.8369 16.1192C11.2675 16.1192 11.6192 15.9433 12.041 15.5479L18.9756 9C19.3096 8.6836 19.4238 8.34961 19.4238 8.05957C19.4238 7.76075 19.3183 7.43555 18.9756 7.11035L12.041 0.624023C11.5752 0.18457 11.2852 0 10.8544 0C10.2393 0 9.79983 0.483398 9.79983 1.07227V4.39453H9.54495C3.22558 4.39453 0.474608 8.44629 0.474608 14.9414C0.474608 15.6973 0.905272 16.1192 1.37988 16.1192C1.74902 16.1192 2.15332 16.0313 2.46094 15.4688C3.99023 12.5947 6.14355 11.7334 9.54495 11.7334H9.79983V15.0908C9.79983 15.6797 10.2393 16.1192 10.8369 16.1192ZM11.3379 14.2295C11.2675 14.2295 11.2148 14.1768 11.2148 14.0977V10.6963C11.2148 10.4942 11.127 10.4063 10.9248 10.4063H9.74709C5.57227 10.4063 2.90918 11.8564 1.87207 14.0625C1.8457 14.1241 1.82812 14.1504 1.78418 14.1504C1.74902 14.1504 1.72265 14.1241 1.72265 14.0537C1.89844 9.90531 3.70898 5.72168 9.74709 5.72168H10.9248C11.127 5.72168 11.2148 5.63379 11.2148 5.43164V1.94238C11.2148 1.87207 11.2675 1.81933 11.3467 1.81933C11.3994 1.81933 11.4521 1.8545 11.4961 1.88965L17.7539 7.89258C17.8154 7.9541 17.8418 8.00683 17.8418 8.05957C17.8418 8.1123 17.8242 8.15625 17.7539 8.22656L11.4873 14.1504C11.4433 14.2031 11.3906 14.2295 11.3379 14.2295Z" fill="white" fill-opacity="0.85"/>
</g>
</svg>
